<?xml version="1.0" encoding="UTF-8"?>
<svg version="1.1" xmlns="http://www.w3.org/2000/svg" width="1563" height="1563">
<path d="M0 0 C515.79 0 1031.58 0 1563 0 C1563 515.79 1563 1031.58 1563 1563 C1047.21 1563 531.42 1563 0 1563 C0 1047.21 0 531.42 0 0 Z " fill="#FEFEFE" transform="translate(0,0)"/>
<path d="M0 0 C11.240625 -0.061875 22.48125 -0.12375 34.0625 -0.1875 C37.58043213 -0.21481201 41.09836426 -0.24212402 44.72290039 -0.27026367 C49.09851074 -0.28381348 49.09851074 -0.28381348 51.16233826 -0.28633118 C52.57004157 -0.29086627 53.97773503 -0.30126351 55.38536072 -0.31672668 C68.4716559 -0.45299561 81.69380276 0.36110379 93.4375 6.75 C94.43885986 7.277146 94.43885986 7.277146 95.46044922 7.81494141 C107.4402858 14.31610486 114.33954571 23.51720422 118.296875 36.61328125 C121.21666161 50.67692011 118.70732521 63.50109511 111.32421875 75.7890625 C102.69760077 87.64818331 88.79623929 94.17580784 74.6015625 96.57421875 C68.26384105 97.31309925 61.86965205 97.10425004 55.5 97.0625 C51.045 97.041875 46.59 97.02125 42 97 C42 107.23 42 117.46 42 128 C14.32617989 128.89943931 -13.31247658 129.12454595 -41 129 C-42.17461555 125.89878289 -43.33830456 122.79357759 -44.5 119.6875 C-44.83386719 118.80642578 -45.16773438 117.92535156 -45.51171875 117.01757812 C-45.82753906 116.17001953 -46.14335938 115.32246094 -46.46875 114.44921875 C-46.76201172 113.66893311 -47.05527344 112.88864746 -47.35742188 112.0847168 C-48 110 -48 110 -48 107 C-64.5 107 -81 107 -98 107 C-99.485 111.95 -99.485 111.95 -101 117 C-102.65 120.96 -104.3 124.92 -106 129 C-131.74 129 -157.48 129 -184 129 C-184.33 110.19 -184.66 91.38 -185 72 C-187.59875 76.455 -190.1975 80.91 -192.875 85.5 C-195.47094727 89.86401367 -195.47094727 89.86401367 -196.56736755 91.70027161 C-199.46101696 96.5529128 -202.25933264 101.36292947 -204.65234375 106.48828125 C-207.46390151 112.31440182 -210.07322507 116.63530197 -216.453125 118.93359375 C-222.158554 120.19343609 -226.89948924 120.01587827 -232 117 C-239.49541554 109.04158797 -244.06555679 98.61647258 -249 89 C-251.97 84.05 -254.94 79.1 -258 74 C-258.33 92.15 -258.66 110.3 -259 129 C-285.07 129 -311.14 129 -338 129 C-346 109 -346 109 -346 107 C-362.17 107.33 -378.34 107.66 -395 108 C-397.64 114.93 -400.28 121.86 -403 129 C-429.07 129 -455.14 129 -482 129 C-482.33 110.52 -482.66 92.04 -483 73 C-485.43375 77.104375 -487.8675 81.20875 -490.375 85.4375 C-491.18018066 86.77135742 -491.98536133 88.10521484 -492.81494141 89.47949219 C-495.9890589 94.74711177 -499.08397526 99.94714232 -501.5859375 105.578125 C-506.21875044 115.7293752 -506.21875044 115.7293752 -511.17285156 117.99267578 C-517.27846328 119.72692159 -523.19005206 119.69975796 -529 117 C-533.99491221 112.77667028 -536.64393625 106.71270531 -539.48144531 100.9453125 C-542.24550082 95.58428909 -545.54739066 90.54404812 -548.75 85.4375 C-549.95996699 83.48208173 -551.16365184 81.52275435 -552.359375 79.55859375 C-553.12459473 78.31033813 -553.12459473 78.31033813 -553.90527344 77.03686523 C-555 75 -555 75 -555 73 C-555.66 73 -556.32 73 -557 73 C-557 91.48 -557 109.96 -557 129 C-569.54 129 -582.08 129 -595 129 C-595 86.76 -595 44.52 -595 1 C-583.45 1 -571.9 1 -560 1 C-553.19283035 7.94609148 -553.19283035 7.94609148 -552.0703125 11.66796875 C-549.84891976 17.86567836 -546.36639464 23.22207263 -542.87625122 28.76293945 C-541.00395018 31.75456247 -539.18624421 34.7789387 -537.36328125 37.80078125 C-536.6326254 39.00750663 -535.90166921 40.21405022 -535.17041016 41.42041016 C-534.63145111 42.30965179 -534.63145111 42.30965179 -534.081604 43.21685791 C-531.03976056 48.23166837 -527.98819667 53.24057242 -524.9375 58.25 C-524.33583008 59.23814697 -523.73416016 60.22629395 -523.11425781 61.24438477 C-521.74298654 63.4963467 -520.3715778 65.74822475 -519 68 C-513.99680222 60.76057803 -509.54039298 53.23003031 -505.125 45.625 C-503.62895147 43.05780702 -502.13088104 40.49179586 -500.6328125 37.92578125 C-500.2530426 37.27471909 -499.87327271 36.62365692 -499.48199463 35.9528656 C-495.0087679 28.28993059 -490.4777347 20.6613353 -485.94293213 13.034729 C-484.96148423 11.38410943 -483.98072479 9.73308056 -483 8.08203125 C-482.443125 7.14593018 -481.88625 6.2098291 -481.3125 5.24536133 C-480.49928979 3.85416075 -479.72065941 2.44131881 -479 1 C-467.12 1 -455.24 1 -443 1 C-442.67 39.28 -442.34 77.56 -442 117 C-438.04 107.76 -434.08 98.52 -430 89 C-424.42983256 76.11898779 -418.8479536 63.24333216 -413.24658203 50.37588501 C-411.89854238 47.27916906 -410.55081646 44.18231671 -409.203125 41.08544922 C-407.43342302 37.0188746 -405.66240773 32.95287544 -403.890625 28.88720703 C-403.06245737 26.98471908 -402.23433063 25.08221333 -401.40625 23.1796875 C-401.03584595 22.33065857 -400.66544189 21.48162964 -400.28381348 20.60687256 C-397.45243261 14.09749582 -394.73120982 7.55490357 -392 1 C-377.81 1 -363.62 1 -349 1 C-341.01575603 18.72326682 -333.14091761 36.48135716 -325.44636536 54.33166504 C-323.53164306 58.77256378 -321.60794838 63.20949589 -319.6796875 67.64453125 C-319.12042177 68.93171291 -318.56117687 70.21890362 -318.00195312 71.50610352 C-316.9782004 73.86249337 -315.95335776 76.21839728 -314.92773438 78.57397461 C-309.52848426 91.01255996 -304.28435216 103.50971307 -299 116 C-298.67 78.05 -298.34 40.1 -298 1 C-286.12 1 -274.24 1 -262 1 C-255.12877366 8.49588328 -255.12877366 8.49588328 -254.0390625 12.4375 C-251.90240048 18.82637744 -248.39149932 24.28227332 -244.82067871 29.94458008 C-242.94487804 32.93317126 -241.12038297 35.95278258 -239.2890625 38.96875 C-238.56437091 40.1563985 -237.83943823 41.34389992 -237.11425781 42.53125 C-235.09629835 45.83860873 -233.09119064 49.15367166 -231.0859375 52.46875 C-229.91194485 54.39612976 -228.73749421 56.32323066 -227.5625 58.25 C-227.02520264 59.14299805 -226.48790527 60.03599609 -225.93432617 60.95605469 C-225.4416626 61.75946289 -224.94899902 62.56287109 -224.44140625 63.390625 C-223.80247437 64.4429834 -223.80247437 64.4429834 -223.15063477 65.51660156 C-222.58107056 66.25088379 -222.58107056 66.25088379 -222 67 C-221.34 67 -220.68 67 -220 67 C-219.71503662 66.49476807 -219.43007324 65.98953613 -219.13647461 65.46899414 C-212.45032565 53.63761879 -205.74730661 41.80181306 -198.52392578 30.28759766 C-194.88998092 24.45126196 -191.93183688 18.90077679 -189.78833008 12.35351562 C-188.3125 9.4375 -188.3125 9.4375 -181 1 C-169.12 1 -157.24 1 -145 1 C-144.67 38.62 -144.34 76.24 -144 115 C-135.14699813 94.93319575 -126.31093605 74.86777736 -117.61474609 54.73388672 C-115.94199721 50.86346241 -114.26241038 46.99602263 -112.58203125 43.12890625 C-111.45032314 40.52352332 -110.31883408 37.91804536 -109.1875 35.3125 C-108.91512512 34.6853006 -108.64275024 34.0581012 -108.36212158 33.41189575 C-104.59834402 24.7406802 -100.87924186 16.05258465 -97.27026367 7.31567383 C-95.10433142 2.10433142 -95.10433142 2.10433142 -94 1 C-92.64905018 0.90731001 -91.29332909 0.88252674 -89.93920898 0.88647461 C-89.07839218 0.88655014 -88.21757538 0.88662567 -87.33067322 0.88670349 C-86.39526199 0.89186478 -85.45985077 0.89702606 -84.49609375 0.90234375 C-83.54307877 0.9037587 -82.59006378 0.90517365 -81.60816956 0.90663147 C-78.55124835 0.91224848 -75.49439923 0.92480384 -72.4375 0.9375 C-70.37044376 0.94251281 -68.30338638 0.94707609 -66.23632812 0.95117188 C-61.15752412 0.96222344 -56.0787743 0.97949945 -51 1 C-50.63463135 1.85601807 -50.2692627 2.71203613 -49.89282227 3.59399414 C-42.44891718 21.02732531 -34.95909697 38.43965429 -27.375 55.8125 C-27.01991364 56.62595886 -26.66482727 57.43941772 -26.29898071 58.27752686 C-24.88428638 61.51822889 -23.46950124 64.75889125 -22.05455017 67.9994812 C-18.88663251 75.2562364 -15.72752014 82.51678736 -12.57696533 89.78109741 C-11.78420254 91.6086529 -10.99051085 93.43580535 -10.19677734 95.26293945 C-9.71418457 96.37628662 -9.2315918 97.48963379 -8.734375 98.63671875 C-8.32413086 99.58248779 -7.91388672 100.52825684 -7.49121094 101.50268555 C-5.29452777 106.65453335 -3.1540849 111.83019623 -1 117 C-0.67 78.39 -0.34 39.78 0 0 Z " fill="#000000" transform="translate(930,708)"/>
<path d="M0 0 C20.13 0 40.26 0 61 0 C61 20.13 61 40.26 61 61 C80.14 61 99.28 61 119 61 C119 40.87 119 20.74 119 0 C139.46 0 159.92 0 181 0 C181.09057706 20.55054119 181.16414224 41.10091873 181.20724869 61.65160942 C181.22780295 71.19538435 181.25578567 80.7390257 181.30175781 90.28271484 C181.3418456 98.60885565 181.36748455 106.93489962 181.37635398 115.26113427 C181.3815319 119.66271536 181.39354969 124.06401966 181.42292023 128.46551132 C181.68781513 169.76265566 181.68781513 169.76265566 173.25 187.4375 C172.90565918 188.18136963 172.56131836 188.92523926 172.20654297 189.69165039 C169.17311656 196.03646383 165.53176069 201.61224006 161 207 C159.89398438 208.36511719 159.89398438 208.36511719 158.765625 209.7578125 C144.99092082 225.91833146 124.25699724 237.66601134 103 240 C90.20611961 240.87154635 77.26645157 241.099883 65 237 C63.89269531 236.67128906 62.78539062 236.34257813 61.64453125 236.00390625 C38.72049745 228.65091428 20.10832559 212.19109322 9.0625 190.875 C1.97174492 175.69264163 -0.3106947 161.60750073 -0.22705078 144.97192383 C-0.22648554 143.38411466 -0.22680544 141.79630496 -0.22793579 140.20849609 C-0.22850588 135.93031162 -0.21680768 131.65224099 -0.20278788 127.3740828 C-0.19022279 122.89113341 -0.18910548 118.40818096 -0.18673706 113.92521667 C-0.18053919 105.45051707 -0.16415144 96.97586951 -0.14403808 88.50119275 C-0.12162619 78.84695696 -0.11067238 69.19271859 -0.10064721 59.53846323 C-0.07978359 39.69227338 -0.04312867 19.84615482 0 0 Z " fill="#73D489" transform="translate(317,859)"/>
<path d="M0 0 C8.02591082 6.39352218 15.10426716 13.99611422 22.3059082 21.29003906 C24.01182161 23.01193235 25.72564632 24.72576003 27.43983173 26.43941116 C30.71110516 29.71156642 33.9784727 32.98762401 37.24682617 36.26269531 C45.55029342 44.58249155 53.85627919 52.89976903 62.16375256 61.21556473 C67.18889214 66.24587505 72.21307821 71.27713114 77.23510742 76.31054688 C82.0950217 81.18147403 86.95752636 86.04980272 91.82164955 90.91652679 C93.67695266 92.773682 95.53137334 94.63171919 97.38490868 96.49063873 C99.96808909 99.08103252 102.55433548 101.66832637 105.14135742 104.25488281 C106.29698181 105.41590012 106.29698181 105.41590012 107.47595215 106.60037231 C108.52942085 107.65177902 108.52942085 107.65177902 109.60417175 108.72442627 C110.52083256 109.64246977 110.52083256 109.64246977 111.45601177 110.5790596 C112.96142364 112.09596942 112.96142364 112.09596942 115 113 C114.34 114.32 113.68 115.64 113 117 C112.34 117 111.68 117 111 117 C110.7428421 117.58247498 110.4856842 118.16494995 110.22073364 118.76507568 C108.89050249 121.20046851 107.43498139 122.80582267 105.46826172 124.75878906 C104.38736771 125.83945648 104.38736771 125.83945648 103.28463745 126.94195557 C102.50750397 127.70876648 101.73037048 128.47557739 100.9296875 129.265625 C100.13345978 130.05902283 99.33723206 130.85242065 98.51687622 131.66986084 C95.97424052 134.20130703 93.42473652 136.72570803 90.875 139.25 C89.14928247 140.96568617 87.42401645 142.68182662 85.69921875 144.3984375 C81.47136968 148.60424248 77.23786131 152.80428507 73 157 C69.68386118 155.55419034 67.50814272 153.75170208 64.96582031 151.19287109 C64.18531311 150.41221283 63.40480591 149.63155457 62.60064697 148.82723999 C61.76821472 147.98448517 60.93578247 147.14173035 60.078125 146.2734375 C59.21813904 145.41062164 58.35815308 144.54780579 57.47210693 143.65884399 C54.7266769 140.90221971 51.9882831 138.13872201 49.25 135.375 C47.38978217 133.50475143 45.52911054 131.63495411 43.66796875 129.765625 C39.10670055 125.1823064 34.55118989 120.59332522 30 116 C26.81740149 117.40509099 24.68651534 119.06921342 22.24121094 121.53173828 C21.52076599 122.25233429 20.80032104 122.9729303 20.05804443 123.71536255 C19.29123352 124.49249603 18.52442261 125.26962952 17.734375 126.0703125 C16.94097717 126.86654022 16.14757935 127.66276794 15.33013916 128.48312378 C12.79869297 131.02575948 10.27429197 133.57526348 7.75 136.125 C6.03431383 137.85071753 4.31817338 139.57598355 2.6015625 141.30078125 C-1.60424248 145.52863032 -5.80428507 149.76213869 -10 154 C-8.55419034 157.31613882 -6.75170208 159.49185728 -4.19287109 162.03417969 C-3.41221283 162.81468689 -2.63155457 163.59519409 -1.82723999 164.39935303 C-0.98448517 165.23178528 -0.14173035 166.06421753 0.7265625 166.921875 C1.58937836 167.78186096 2.45219421 168.64184692 3.34115601 169.52789307 C6.09778029 172.2733231 8.86127799 175.0117169 11.625 177.75 C13.49524857 179.61021783 15.36504589 181.47088946 17.234375 183.33203125 C21.8176936 187.89329945 26.40667478 192.44881011 31 197 C29.55419034 200.31613882 27.75170208 202.49185728 25.19287109 205.03417969 C24.41221283 205.81468689 23.63155457 206.59519409 22.82723999 207.39935303 C21.98448517 208.23178528 21.14173035 209.06421753 20.2734375 209.921875 C19.41062164 210.78186096 18.54780579 211.64184692 17.65884399 212.52789307 C14.90221971 215.2733231 12.13872201 218.0117169 9.375 220.75 C7.50475143 222.61021783 5.63495411 224.47088946 3.765625 226.33203125 C-0.8176936 230.89329945 -5.40667478 235.44881011 -10 240 C-13.47881749 238.50550802 -15.73526891 236.51820151 -18.40666199 233.85403442 C-19.28264038 232.98514084 -20.15861877 232.11624725 -21.06114197 231.22102356 C-22.0241828 230.25568889 -22.98711557 229.29024641 -23.94995117 228.32470703 C-24.9700021 227.30900472 -25.99046973 226.29372074 -27.01132202 225.27882385 C-29.78293143 222.52061084 -32.54809383 219.75601917 -35.31174636 216.98983622 C-37.62545773 214.6750539 -39.94214201 212.36325824 -42.25878125 210.05140674 C-47.73323321 204.58805575 -53.20233285 199.11938676 -58.66821289 193.64746094 C-64.28524237 188.02441322 -69.91133465 182.41055416 -75.54204005 176.80120385 C-80.38929589 171.97164936 -85.23063218 167.13621504 -90.0674246 162.29618156 C-92.94998651 159.41181754 -95.83466255 156.52965709 -98.72511864 153.65320206 C-101.45121958 150.9398114 -104.1697694 148.21906269 -106.88305283 145.49285698 C-107.87161774 144.50195379 -108.86266202 143.51351585 -109.85656548 142.52796745 C-118.6100995 133.84263683 -126.898253 124.47164794 -132.25 113.25 C-132.57299072 112.58661621 -132.89598145 111.92323242 -133.22875977 111.23974609 C-138.00131648 101.11339792 -141.74580768 90.26919302 -142 79 C-142.05027344 77.88496094 -142.10054687 76.76992188 -142.15234375 75.62109375 C-142.80010357 50.77302705 -133.79695584 28.37426471 -117 10 C-85.89413049 -21.98867382 -35.9654889 -25.83974701 0 0 Z " fill="#B3EF93" transform="translate(288,489)"/>
<path d="M0 0 C14.19 0 28.38 0 43 0 C43 31.02 43 62.04 43 94 C45.97 94 48.94 94 52 94 C52.01981934 92.95021973 52.03963867 91.90043945 52.06005859 90.81884766 C52.13602198 86.93106739 52.22475298 83.04366597 52.31738281 79.15625 C52.35571104 77.47240671 52.39055712 75.78848045 52.421875 74.10449219 C52.46744287 71.68654694 52.52544923 69.26917472 52.5859375 66.8515625 C52.59748871 66.0963028 52.60903992 65.34104309 52.62094116 64.56289673 C52.77225659 59.22774341 52.77225659 59.22774341 55 57 C59.62855811 56.53767843 64.28854797 56.67602111 68.9375 56.6875 C70.23880859 56.67138672 71.54011719 56.65527344 72.88085938 56.63867188 C74.74774414 56.63770508 74.74774414 56.63770508 76.65234375 56.63671875 C77.79695068 56.63373779 78.94155762 56.63075684 80.12084961 56.62768555 C83 57 83 57 84.87841797 58.03955078 C86.64462224 61.1267559 86.36643896 64.27507533 86.29296875 67.73046875 C86.28872391 68.48088943 86.28447906 69.23131012 86.28010559 70.00447083 C86.2633245 72.39918026 86.2256749 74.79304534 86.1875 77.1875 C86.17245235 78.8118368 86.15876409 80.4361868 86.14648438 82.06054688 C86.11342305 86.04068948 86.06164594 90.02020163 86 94 C90.62 94 95.24 94 100 94 C100 62.98 100 31.96 100 0 C114.19 0 128.38 0 143 0 C143 31.35 143 62.7 143 95 C162.14 95 181.28 95 201 95 C201 105.89 201 116.78 201 128 C195.68003906 128.06058594 190.36007812 128.12117187 184.87890625 128.18359375 C181.42903178 128.22427424 177.97916134 128.26513956 174.52929688 128.30664062 C169.10019748 128.37193477 163.67109714 128.43668711 158.24194336 128.49731445 C139.8340404 128.70369193 121.42941113 128.95210689 103.02734375 129.47265625 C102.31685946 129.49134703 101.60637516 129.5100378 100.87436104 129.52929497 C98.90039126 129.58223001 96.92662467 129.64258947 94.95288086 129.70336914 C93.29161415 129.75298546 93.29161415 129.75298546 91.5967865 129.80360413 C89.01659491 129.8339997 89.01659491 129.8339997 87 131 C86.9906543 132.03930664 86.98130859 133.07861328 86.97167969 134.14941406 C86.93175877 138.01133838 86.86599522 141.8724678 86.79248047 145.73388672 C86.76428282 147.40403011 86.74306221 149.07430665 86.72900391 150.74462891 C86.70755663 153.14815372 86.66090155 155.55007983 86.609375 157.953125 C86.60814636 158.69806213 86.60691772 159.44299927 86.60565186 160.21051025 C86.51115497 163.56712856 86.22388571 165.67041578 84.31933594 168.47412109 C81.4289217 170.37570941 79.72626767 170.48922081 76.28125 170.4609375 C75.18425781 170.45707031 74.08726563 170.45320312 72.95703125 170.44921875 C71.81621094 170.42472656 70.67539063 170.40023437 69.5 170.375 C68.35917969 170.37371094 67.21835938 170.37242187 66.04296875 170.37109375 C56.8144827 170.27349519 56.8144827 170.27349519 53 168 C52.970271 166.43318481 52.970271 166.43318481 52.93994141 164.8347168 C52.86387886 160.9599595 52.77516272 157.08557743 52.68261719 153.21118164 C52.64433007 151.53417366 52.60947669 149.85708362 52.578125 148.17993164 C52.53246821 145.76939568 52.4744759 143.35942443 52.4140625 140.94921875 C52.40251129 140.19912033 52.39096008 139.44902191 52.37905884 138.67619324 C52.27304541 134.93872287 52.12380918 133.18571377 50 130 C33.5 129.34 17 128.68 0 128 C0 85.76 0 43.52 0 0 Z " fill="#74D189" transform="translate(1106,709)"/>
<path d="M0 0 C13.86 0 27.72 0 42 0 C42 31.35 42 62.7 42 95 C61.14 95 80.28 95 100 95 C100 105.89 100 116.78 100 128 C74.59 128 49.18 128 23 128 C23 117.77 23 107.54 23 97 C11.615 96.505 11.615 96.505 0 96 C0 64.32 0 32.64 0 0 Z " fill="#000000" transform="translate(1207,709)"/>
<path d="M0 0 C13.86 0 27.72 0 42 0 C42 42.24 42 84.48 42 128 C28.14 128 14.28 128 0 128 C0 85.76 0 43.52 0 0 Z " fill="#000000" transform="translate(1054,709)"/>
<path d="M0 0 C13.86 0 27.72 0 42 0 C42 31.35 42 62.7 42 95 C44.64 95 47.28 95 50 95 C50 95.33 50 95.66 50 96 C45.38 96 40.76 96 36 96 C36 97.98 36 99.96 36 102 C37.98 102 39.96 102 42 102 C42 104.64 42 107.28 42 110 C39.03 110 36.06 110 33 110 C33 112.97 33 115.94 33 119 C34.98 119 36.96 119 39 119 C39 121.31 39 123.62 39 126 C36.69 126 34.38 126 32 126 C32 126.66 32 127.32 32 128 C21.44 128 10.88 128 0 128 C0 85.76 0 43.52 0 0 Z " fill="#000000" transform="translate(1106,709)"/>
<path d="M0 0 C6.93 0 13.86 0 21 0 C21 8.91 21 17.82 21 27 C29.58 27 38.16 27 47 27 C47 33.6 47 40.2 47 47 C38.42 47 29.84 47 21 47 C21 55.91 21 64.82 21 74 C14.07 74 7.14 74 0 74 C0 65.42 0 56.84 0 48 C-8.58 48 -17.16 48 -26 48 C-26 41.07 -26 34.14 -26 27 C-17.42 27 -8.84 27 0 27 C0 18.09 0 9.18 0 0 Z " fill="#A1DBAF" transform="translate(407,642)"/>
<path d="M0 0 C0.33 0 0.66 0 1 0 C1.05931296 5.00205957 1.0555199 9.99816143 1 15 C0.99613281 15.79277344 0.99226563 16.58554687 0.98828125 17.40234375 C-0.09973822 36.34888969 -12.03871673 54.85127782 -25.58203125 67.390625 C-27.98971459 69.37743771 -30.44106456 71.21326337 -33 73 C-33.73089844 73.52980469 -34.46179688 74.05960938 -35.21484375 74.60546875 C-51.17347084 85.21727377 -72.57551692 88.46470805 -91.32324219 85.65136719 C-98.19478011 84.23562319 -104.59977942 81.82743922 -111 79 C-111 78.67 -111 78.34 -111 78 C-110.21052979 78.02094727 -109.42105957 78.04189453 -108.60766602 78.06347656 C-88.58858357 78.52398687 -71.36419156 77.88253804 -53 69 C-51.65228516 68.35611328 -51.65228516 68.35611328 -50.27734375 67.69921875 C-29.07997134 56.87178392 -12.01233292 38.06629931 -4.11816406 15.4765625 C-2.5324474 10.36810931 -1.21226863 5.20849084 0 0 Z " fill="#F9FDFA" transform="translate(488,1004)"/>
<path d="M0 0 C2.62214488 2.3346577 5.16894439 4.74093301 7.6796875 7.1953125 C3.83586187 7.1953125 1.98643225 5.85597132 -1.3828125 4.0078125 C-9.64081431 -0.34608435 -18.29778986 -2.58121451 -27.3203125 -4.8046875 C-28.23695679 -5.07406128 -28.23695679 -5.07406128 -29.17211914 -5.34887695 C-43.50041125 -8.38909986 -61.70048273 -7.10321821 -75.3203125 -1.8046875 C-76.3309375 -1.44246094 -77.3415625 -1.08023437 -78.3828125 -0.70703125 C-95.95323644 6.04202482 -109.5265623 16.61394861 -121.3203125 31.1953125 C-122.3203125 28.1953125 -122.3203125 28.1953125 -120.87109375 24.859375 C-109.67621958 4.03139995 -93.46621484 -10.00228626 -70.62109375 -16.92578125 C-45.99517782 -23.4829778 -19.06615337 -16.46055903 0 0 Z " fill="#FCFEFB" transform="translate(286.3203125,498.8046875)"/>
<path d="M0 0 C3.465 -0.0825 6.93 -0.165 10.5 -0.25 C12.11358398 -0.30462402 12.11358398 -0.30462402 13.75976562 -0.36035156 C19.97092911 -0.43140177 24.9086021 0.22914434 30 4 C33.62951567 8.15986733 34.67382051 12.31148008 34.375 17.79296875 C33.63114938 22.17083957 32.03238557 25.49474883 28.41015625 28.17749023 C22.45217921 31.42178508 17.17123469 31.47583868 10.5 31.25 C7.035 31.1675 3.57 31.085 0 31 C0 20.77 0 10.54 0 0 Z " fill="#F7F7F7" transform="translate(972,741)"/>
<path d="M0 0 C2.805 -0.0825 5.61 -0.165 8.5 -0.25 C9.8003418 -0.30462402 9.8003418 -0.30462402 11.12695312 -0.36035156 C16.91776138 -0.44172738 21.15491857 0.7897665 26 4 C29.11706266 7.21447087 29.2244115 10.1850604 29.375 14.5 C29.2244115 18.8149396 29.11706266 21.78552913 26 25 C20.23935007 28.81686699 15.28675469 29.53509416 8.5 29.25 C5.695 29.1675 2.89 29.085 0 29 C0 19.43 0 9.86 0 0 Z " fill="#75D48B" transform="translate(957,902)"/>
<path d="M0 0 C2.64 0 5.28 0 8 0 C10.01260826 2.26457799 11.11867774 3.81904831 12.4375 6.4375 C13.1027404 7.6445997 13.76809897 8.85163428 14.43359375 10.05859375 C14.95050781 11.02925781 15.46742188 11.99992188 16 13 C16.33 13.33 16.66 13.66 17 14 C19.64 9.38 22.28 4.76 25 0 C27.97 0 30.94 0 34 0 C34 9.57 34 19.14 34 29 C31.03 29 28.06 29 25 29 C24.67 25.37 24.34 21.74 24 18 C22.9171875 19.98 22.9171875 19.98 21.8125 22 C19.37319612 25.87256718 19.37319612 25.87256718 16.4375 26.875 C12.85412999 25.58866205 11.81718691 23.23055451 10 20 C9.67 22.97 9.34 25.94 9 29 C6.03 29 3.06 29 0 29 C0 19.43 0 9.86 0 0 Z " fill="#77D58C" transform="translate(573,902)"/>
<path d="M0 0 C3.63 0 7.26 0 11 0 C11 4.62 11 9.24 11 14 C15.62 14 20.24 14 25 14 C25 17.63 25 21.26 25 25 C20.38 25 15.76 25 11 25 C11 29.62 11 34.24 11 39 C7.37 39 3.74 39 0 39 C0 34.38 0 29.76 0 25 C-4.62 25 -9.24 25 -14 25 C-14 21.37 -14 17.74 -14 14 C-9.38 14 -4.76 14 0 14 C0 9.38 0 4.76 0 0 Z " fill="#A3DCB1" transform="translate(476,626)"/>
<path d="M0 0 C2.84625 -0.061875 5.6925 -0.12375 8.625 -0.1875 C9.51010254 -0.21481201 10.39520508 -0.24212402 11.30712891 -0.27026367 C16.29420547 -0.32245792 19.6870292 0.2178676 24 3 C26.1979747 5.71083547 26.92397877 7.48957172 27.4375 10.9375 C27 14 27 14 24.875 17.0625 C24.25625 18.031875 23.6375 19.00125 23 20 C23.50560887 22.6807393 23.50560887 22.6807393 25 25 C25.67246581 26.33041796 26.34011002 27.66329979 27 29 C23.61897078 29.29035556 20.37177161 29.4386474 17 29 C14.375 26.625 14.375 26.625 13 24 C13 23.34 13 22.68 13 22 C12.01 22 11.02 22 10 22 C10 24.31 10 26.62 10 29 C6.7 29 3.4 29 0 29 C0 19.43 0 9.86 0 0 Z " fill="#77D58C" transform="translate(1256,902)"/>
<path d="M0 0 C2.84625 -0.061875 5.6925 -0.12375 8.625 -0.1875 C9.51010254 -0.21481201 10.39520508 -0.24212402 11.30712891 -0.27026367 C16.29420547 -0.32245792 19.6870292 0.2178676 24 3 C26.1979747 5.71083547 26.92397877 7.48957172 27.4375 10.9375 C27 14 27 14 24.875 17.0625 C24.25625 18.031875 23.6375 19.00125 23 20 C23.50560887 22.6807393 23.50560887 22.6807393 25 25 C25.67246581 26.33041796 26.34011002 27.66329979 27 29 C23.61897078 29.29035556 20.37177161 29.4386474 17 29 C14.375 26.625 14.375 26.625 13 24 C13 23.34 13 22.68 13 22 C12.01 22 11.02 22 10 22 C10 24.31 10 26.62 10 29 C6.7 29 3.4 29 0 29 C0 19.43 0 9.86 0 0 Z " fill="#77D58C" transform="translate(671,902)"/>
<path d="M0 0 C8 0 8 0 10.75 2.40625 C11.86375 3.93765625 11.86375 3.93765625 13 5.5 C13.763125 6.5209375 14.52625 7.541875 15.3125 8.59375 C15.869375 9.3878125 16.42625 10.181875 17 11 C17.33 7.37 17.66 3.74 18 0 C21.3 0 24.6 0 28 0 C28 9.57 28 19.14 28 29 C19 29 19 29 16.15234375 26.375 C15.38333223 25.27077833 14.64510584 24.14454278 13.9375 23 C13.54884766 22.42765625 13.16019531 21.8553125 12.75976562 21.265625 C11.81229132 19.86195936 10.90215626 18.43321278 10 17 C9.67 20.96 9.34 24.92 9 29 C6.03 29 3.06 29 0 29 C0 19.43 0 9.86 0 0 Z " fill="#76D58C" transform="translate(1170,902)"/>
<path d="M0 0 C3.01125 -0.0825 6.0225 -0.165 9.125 -0.25 C10.06230957 -0.28641602 10.99961914 -0.32283203 11.96533203 -0.36035156 C17.47922855 -0.43316553 20.67167183 0.25147903 25 4 C27.46141247 7.6921187 27.68650207 10.71354805 27 15 C24.82857117 18.56734736 22.83531894 20.44363869 19 22 C16.640625 22.1953125 16.640625 22.1953125 14.25 22.125 C13.45078125 22.10695313 12.6515625 22.08890625 11.828125 22.0703125 C11.22484375 22.04710937 10.6215625 22.02390625 10 22 C10 24.31 10 26.62 10 29 C6.7 29 3.4 29 0 29 C0 19.43 0 9.86 0 0 Z " fill="#79D58E" transform="translate(781,902)"/>
<path d="M0 0 C2.84625 -0.061875 5.6925 -0.12375 8.625 -0.1875 C9.51010254 -0.21481201 10.39520508 -0.24212402 11.30712891 -0.27026367 C16.28219813 -0.32233226 19.7215708 0.17623673 24 3 C26.68408645 7.02612967 26.80610406 10.26816918 26 15 C24.07643127 18.57339883 21.9117746 20.69607513 18 22 C16.60560336 22.06665376 15.20830125 22.08538199 13.8125 22.0625 C11.9253125 22.0315625 11.9253125 22.0315625 10 22 C10 24.31 10 26.62 10 29 C6.7 29 3.4 29 0 29 C0 19.43 0 9.86 0 0 Z " fill="#76D58B" transform="translate(1085,902)"/>
<path d="M0 0 C3.3 0 6.6 0 10 0 C11.81771173 4.08103297 13.62826264 8.16520387 15.4375 12.25 C16.2119043 13.98830078 16.2119043 13.98830078 17.00195312 15.76171875 C17.49501953 16.87675781 17.98808594 17.99179687 18.49609375 19.140625 C18.95169678 20.16704102 19.4072998 21.19345703 19.87670898 22.25097656 C21 25 21 25 22 29 C18.7 29 15.4 29 12 29 C11.34 27.68 10.68 26.36 10 25 C7.35212912 24.29626983 7.35212912 24.29626983 4.375 24.25 C3.37210938 24.19328125 2.36921875 24.1365625 1.3359375 24.078125 C0.17964844 24.03945313 0.17964844 24.03945313 -1 24 C-1.33 25.65 -1.66 27.3 -2 29 C-5.3 29 -8.6 29 -12 29 C-8.41727865 19.1030499 -4.58080333 9.48648633 0 0 Z " fill="#76D48B" transform="translate(634,902)"/>
<path d="M0 0 C7.59 0 15.18 0 23 0 C23 2.31 23 4.62 23 7 C18.38 7 13.76 7 9 7 C9 8.32 9 9.64 9 11 C12.96 11 16.92 11 21 11 C21 13.31 21 15.62 21 18 C17.04 18 13.08 18 9 18 C9 19.32 9 20.64 9 22 C13.62 22 18.24 22 23 22 C23 24.31 23 26.62 23 29 C15.41 29 7.82 29 0 29 C0 19.43 0 9.86 0 0 Z " fill="#73D489" transform="translate(1129,902)"/>
<path d="M0 0 C7.59 0 15.18 0 23 0 C23 2.31 23 4.62 23 7 C18.38 7 13.76 7 9 7 C9 8.32 9 9.64 9 11 C12.96 11 16.92 11 21 11 C21 13.31 21 15.62 21 18 C17.04 18 13.08 18 9 18 C9 19.32 9 20.64 9 22 C13.62 22 18.24 22 23 22 C23 24.31 23 26.62 23 29 C15.41 29 7.82 29 0 29 C0 19.43 0 9.86 0 0 Z " fill="#73D489" transform="translate(1004,902)"/>
<path d="M0 0 C0.68578125 -0.020625 1.3715625 -0.04125 2.078125 -0.0625 C7.16582715 -0.10209301 7.16582715 -0.10209301 9.6015625 1.765625 C9.93929687 2.25546875 10.27703125 2.7453125 10.625 3.25 C9.965 5.23 9.305 7.21 8.625 9.25 C2.685 8.26 2.685 8.26 -3.375 7.25 C-3.375 8.24 -3.375 9.23 -3.375 10.25 C-2.37919922 10.39695312 -2.37919922 10.39695312 -1.36328125 10.546875 C8.33206609 12.18871484 8.33206609 12.18871484 11.625 16.25 C12.31907231 20.491553 12.11345367 22.47521141 9.8125 26.125 C6.10230257 29.72919179 2.65501829 29.41143747 -2.3125 29.4375 C-3.53839844 29.45167969 -4.76429688 29.46585938 -6.02734375 29.48046875 C-9.13143812 29.26676797 -10.78862551 28.88998182 -13.375 27.25 C-12.385 23.785 -12.385 23.785 -11.375 20.25 C-10.715 20.415 -10.055 20.58 -9.375 20.75 C-5.64400206 21.37183299 -2.15626622 21.31408926 1.625 21.25 C-0.84403651 19.96610101 -3.27712892 18.89559221 -5.875 17.875 C-9.27541675 16.29623508 -11.20789656 15.28394482 -13.375 12.25 C-13.9375 9.3125 -13.9375 9.3125 -13.375 6.25 C-10.9375 3.4375 -10.9375 3.4375 -8.375 1.25 C-6.39539491 -0.72960509 -2.69753166 0.020056 0 0 Z " fill="#78D58D" transform="translate(544.375,901.75)"/>
<path d="M0 0 C1.14210938 -0.01417969 2.28421875 -0.02835938 3.4609375 -0.04296875 C6.46436816 0.17579966 8.10425934 0.61669363 10.625 2.1875 C9.965 4.4975 9.305 6.8075 8.625 9.1875 C8.109375 9.0225 7.59375 8.8575 7.0625 8.6875 C3.89136124 8.03701 0.85281666 8.1254266 -2.375 8.1875 C-2.045 8.8475 -1.715 9.5075 -1.375 10.1875 C1.37885379 11.00378891 4.15564204 11.5965852 6.9609375 12.2109375 C10.06803758 13.3499038 11.0641085 14.30011709 12.625 17.1875 C12.55306179 21.21603967 12.25567947 23.41440903 9.6875 26.5625 C5.93475642 29.51920706 2.79982432 29.37066103 -1.8125 29.375 C-2.49376953 29.38724609 -3.17503906 29.39949219 -3.87695312 29.41210938 C-7.60329809 29.42305848 -9.19491571 29.30755619 -12.375 27.1875 C-12.045 25.2075 -11.715 23.2275 -11.375 21.1875 C-7.89987282 20.02912427 -6.23829714 20.41484057 -2.6875 21.125 C-1.19669922 21.41697266 -1.19669922 21.41697266 0.32421875 21.71484375 C1.08347656 21.87082031 1.84273437 22.02679687 2.625 22.1875 C2.625 21.1975 2.625 20.2075 2.625 19.1875 C1.62919922 19.04054688 1.62919922 19.04054688 0.61328125 18.890625 C-9.08206609 17.24878516 -9.08206609 17.24878516 -12.375 13.1875 C-13.07490157 8.91032375 -12.87842498 6.9594183 -10.5 3.3125 C-7.03906434 -0.14843566 -4.80320188 0.02698428 0 0 Z " fill="#76D58C" transform="translate(1227.375,901.8125)"/>
<path d="M0 0 C0.99 0.66 1.98 1.32 3 2 C2.34 4.31 1.68 6.62 1 9 C0.484375 8.835 -0.03125 8.67 -0.5625 8.5 C-3.73363876 7.84951 -6.77218334 7.9379266 -10 8 C-10.33 8.66 -10.66 9.32 -11 10 C-9.87851563 10.14695312 -9.87851563 10.14695312 -8.734375 10.296875 C-0.83248185 11.49663888 -0.83248185 11.49663888 2.6875 13.625 C4.60151099 17.08844845 4.80134725 20.13607813 4 24 C1.79259319 26.96858157 0.51402627 27.82865791 -3 29 C-5.31019336 29.12070269 -7.6241874 29.175363 -9.9375 29.1875 C-11.16339844 29.20167969 -12.38929687 29.21585938 -13.65234375 29.23046875 C-16.75643812 29.01676797 -18.41362551 28.63998182 -21 27 C-20.1875 24.0625 -20.1875 24.0625 -19 21 C-18.01 20.67 -17.02 20.34 -16 20 C-15.34 20.33 -14.68 20.66 -14 21 C-12.62657169 21.0689472 -11.24997898 21.08467708 -9.875 21.0625 C-8.59625 21.041875 -7.3175 21.02125 -6 21 C-8.64362871 18.35637129 -11.27252067 17.89836719 -14.80859375 16.87890625 C-17.23163023 15.90710018 -18.42418776 15.07317798 -20 13 C-20.722409 8.02340466 -20.79881382 6.12773716 -17.875 2 C-12.88415282 -1.57176292 -5.80101765 -0.68459215 0 0 Z " fill="#75D48B" transform="translate(1064,902)"/>
<path d="M0 0 C0.66 0 1.32 0 2 0 C3.5729434 4.07269123 5.13933576 8.14782243 6.69970703 12.2253418 C7.23144063 13.61209913 7.76495802 14.99817385 8.30029297 16.38354492 C9.06948357 18.37502078 9.83222484 20.36886369 10.59375 22.36328125 C11.05458984 23.56251221 11.51542969 24.76174316 11.99023438 25.99731445 C13 29 13 29 13 32 C5.08 32 -2.84 32 -11 32 C-8.75 21.875 -8.75 21.875 -6.8359375 17.08984375 C-6.43632813 16.08115234 -6.03671875 15.07246094 -5.625 14.03320312 C-5.2125 13.01162109 -4.8 11.99003906 -4.375 10.9375 C-3.95476563 9.88111328 -3.53453125 8.82472656 -3.1015625 7.73632812 C-2.07373243 5.15507306 -1.03978554 2.57645691 0 0 Z " fill="#F5F5F5" transform="translate(856,752)"/>
<path d="M0 0 C2.67841341 3.20349718 4.05195434 6.35121408 5.48046875 10.26171875 C5.92197266 11.46248047 6.36347656 12.66324219 6.81835938 13.90039062 C7.04289795 14.52147705 7.26743652 15.14256348 7.4987793 15.7824707 C8.18986508 17.69404192 8.88993679 19.60212707 9.59179688 21.50976562 C13 30.83087491 13 30.83087491 13 32 C4.75 32 -3.5 32 -12 32 C-8.62061059 20.73536865 -8.62061059 20.73536865 -6.9921875 16.46484375 C-6.64542969 15.55412109 -6.29867187 14.64339844 -5.94140625 13.70507812 C-5.58949219 12.79177734 -5.23757813 11.87847656 -4.875 10.9375 C-4.51535156 9.98939453 -4.15570312 9.04128906 -3.78515625 8.06445312 C-1.13109756 1.13109756 -1.13109756 1.13109756 0 0 Z " fill="#F6F6F6" transform="translate(559,752)"/>
<path d="M0 0 C8.58 0 17.16 0 26 0 C26 2.64 26 5.28 26 8 C23.36 8 20.72 8 18 8 C18 14.93 18 21.86 18 29 C14.7 29 11.4 29 8 29 C8 22.07 8 15.14 8 8 C5.36 8 2.72 8 0 8 C0 5.36 0 2.72 0 0 Z " fill="#78D58D" transform="translate(713,902)"/>
<path d="M0 0 C3.3 0 6.6 0 10 0 C10 6.93 10 13.86 10 21 C14.29 21 18.58 21 23 21 C23 23.64 23 26.28 23 29 C15.41 29 7.82 29 0 29 C0 19.43 0 9.86 0 0 Z " fill="#7AD68E" transform="translate(853,902)"/>
<path d="M0 0 C2.97 0 5.94 0 9 0 C9 7.26 9 14.52 9 22 C13.29 22 17.58 22 22 22 C22 24.31 22 26.62 22 29 C14.74 29 7.48 29 0 29 C0 19.43 0 9.86 0 0 Z " fill="#73D489" transform="translate(892,902)"/>
<path d="M0 0 C2.64 0 5.28 0 8 0 C8 2.97 8 5.94 8 9 C10.97 9 13.94 9 17 9 C17 11.64 17 14.28 17 17 C14.03 17 11.06 17 8 17 C8 19.97 8 22.94 8 26 C5.36 26 2.72 26 0 26 C0 23.03 0 20.06 0 17 C-2.97 17 -5.94 17 -9 17 C-9 14.36 -9 11.72 -9 9 C-6.03 9 -3.06 9 0 9 C0 6.03 0 3.06 0 0 Z " fill="#A5DDB3" transform="translate(505,593)"/>
<path d="M0 0 C2.64 0 5.28 0 8 0 C8 2.97 8 5.94 8 9 C10.97 9 13.94 9 17 9 C17 11.31 17 13.62 17 16 C14.03 16 11.06 16 8 16 C8 18.97 8 21.94 8 25 C5.69 25 3.38 25 1 25 C1 22.03 1 19.06 1 16 C-1.97 16 -4.94 16 -8 16 C-8 13.69 -8 11.38 -8 9 C-5.36 9 -2.72 9 0 9 C0 6.03 0 3.06 0 0 Z " fill="#A7DDB4" transform="translate(442,593)"/>
<path d="M0 0 C2.31 0 4.62 0 7 0 C7 2.97 7 5.94 7 9 C9.64 9 12.28 9 15 9 C15 11.31 15 13.62 15 16 C12.36 16 9.72 16 7 16 C7 18.97 7 21.94 7 25 C4.36 25 1.72 25 -1 25 C-1 22.03 -1 19.06 -1 16 C-3.64 16 -6.28 16 -9 16 C-9 13.69 -9 11.38 -9 9 C-6.03 9 -3.06 9 0 9 C0 6.03 0 3.06 0 0 Z " fill="#A5DDB3" transform="translate(475,681)"/>
<path d="M0 0 C3.3 0 6.6 0 10 0 C10 9.57 10 19.14 10 29 C6.7 29 3.4 29 0 29 C0 19.43 0 9.86 0 0 Z " fill="#79D58E" transform="translate(825,902)"/>
<path d="M0 0 C6.3 -0.48461538 6.3 -0.48461538 9.4375 1.6875 C11 4 11 4 11.5 6.5 C10.81895125 9.90524375 9.8520847 11.02547983 7 13 C3.25 13.25 3.25 13.25 0 13 C0 8.71 0 4.42 0 0 Z " fill="#FAFDFA" transform="translate(966,910)"/>
<path d="M0 0 C1.98 0 3.96 0 6 0 C6.625 2.375 6.625 2.375 7 5 C5 7 5 7 2.375 7.125 C1.59125 7.08375 0.8075 7.0425 0 7 C0 4.69 0 2.38 0 0 Z " fill="#F7FCF9" transform="translate(1266,910)"/>
<path d="M0 0 C1.98 0 3.96 0 6 0 C6.625 2.375 6.625 2.375 7 5 C5 7 5 7 2.375 7.125 C1.59125 7.08375 0.8075 7.0425 0 7 C0 4.69 0 2.38 0 0 Z " fill="#F7FCF9" transform="translate(681,910)"/>
<path d="M0 0 C1.98 0 3.96 0 6 0 C6.38218767 1.65614657 6.71395102 3.32457024 7 5 C6 6 6 6 2.9375 6.0625 C1.4834375 6.0315625 1.4834375 6.0315625 0 6 C0 4.02 0 2.04 0 0 Z " fill="#F8FCF9" transform="translate(1095,910)"/>
<path d="M0 0 C1.98 0 3.96 0 6 0 C6.38218767 1.65614657 6.71395102 3.32457024 7 5 C6 6 6 6 2.9375 6.0625 C1.4834375 6.0315625 1.4834375 6.0315625 0 6 C0 4.02 0 2.04 0 0 Z " fill="#FCFEFD" transform="translate(791,910)"/>
<path d="M0 0 C0.66 0 1.32 0 2 0 C2.33 1.98 2.66 3.96 3 6 C1.35 6 -0.3 6 -2 6 C-1.34 4.02 -0.68 2.04 0 0 Z " fill="#EFFAF1" transform="translate(638,913)"/>
</svg>
