<?xml version="1.0" encoding="UTF-8"?>
<svg width="24px" height="24px" viewBox="0 0 24 24" version="1.1" xmlns="http://www.w3.org/2000/svg">
    <g stroke="none" stroke-width="1" fill="none" fill-rule="evenodd">
        <path d="M12,2C13.1,2,14,2.9,14,4C14,5.1,13.1,6,12,6C10.9,6,10,5.1,10,4C10,2.9,10.9,2,12,2M12,9C13.7,9,15.1,9.9,15.7,11.3C16.4,11.1,17.1,11,17.8,11C18.3,11,18.7,11.3,18.7,11.8C18.7,12.3,18.3,12.7,17.8,12.7C16.8,12.7,15.9,13,15.2,13.6C15.1,13.8,14.9,13.9,14.7,13.9C14.5,13.9,14.3,13.8,14.2,13.6C13.5,12.3,12.1,11.8,10.8,12.3C9.5,12.8,8.7,14.1,8.7,15.5V20.7C8.7,21.2,8.3,21.7,7.8,21.7C7.3,21.7,6.8,21.2,6.8,20.7V15.5C6.8,13.2,8.2,11.1,10.3,10.2C10.8,9.9,11.4,9.7,12,9.7V9M17.8,13.8C18.3,13.8,18.7,14.2,18.7,14.7V16.7H20.7C21.2,16.7,21.7,17.1,21.7,17.6C21.7,18.1,21.2,18.5,20.7,18.5H18.7V20.5C18.7,21,18.3,21.4,17.8,21.4C17.3,21.4,16.9,21,16.9,20.5V18.5H14.9C14.4,18.5,14,18.1,14,17.6C14,17.1,14.4,16.7,14.9,16.7H16.9V14.7C16.9,14.2,17.3,13.8,17.8,13.8Z" fill="currentColor"/>
    </g>
</svg>
